<svg width="43" height="44" viewBox="0 0 43 44" fill="none" xmlns="http://www.w3.org/2000/svg">
<path d="M0 27.2349C0 20.0716 4.25196 14.7817 11.8878 12.2257L11.9338 12.3174C6.85793 15.3725 4.43587 20.1633 4.43587 27.2349C4.43587 34.3064 6.85977 39.0495 11.9338 42.244L11.8878 42.3358C4.25196 39.7358 0 34.3982 0 27.2349ZM5.53196 27.2807C5.53196 17.1064 11.5678 10.9028 21.0777 10.9028C30.5876 10.9028 36.6234 17.1064 36.6234 27.2807C36.6234 37.4551 30.5416 43.7486 21.0777 43.7486C11.6138 43.7486 5.53196 37.4073 5.53196 27.2807ZM32.0055 27.2349C32.0055 16.5138 27.2956 11.9523 21.0777 11.9523C14.8598 11.9523 10.1499 16.5138 10.1499 27.2349C10.1499 37.956 14.8598 42.655 21.0777 42.655C27.2956 42.655 32.0055 37.956 32.0055 27.2349ZM12.1618 9.35229L13.7177 7.66422L21.0795 3.64954L28.2133 7.39083L29.9972 9.35413L29.5393 9.90092L21.0795 5.97799L12.6198 9.90092L12.1618 9.35413V9.35229ZM15.4078 5.83853L20.7577 0H21.3977L26.7476 5.83853L26.6556 5.93028L21.0777 2.82752L15.4998 5.93028L15.4097 5.83853H15.4078ZM30.2216 42.244C35.2975 39.0495 37.7195 34.3064 37.7195 27.2349C37.7195 20.1633 35.2956 15.3725 30.2216 12.3174L30.2676 12.2257C37.9035 14.7798 42.1572 20.0716 42.1572 27.2349C42.1572 34.3982 37.9053 39.734 30.2676 42.3358L30.2216 42.244Z" fill="#815A04"/>
</svg>
