<svg width="120" height="75" viewBox="0 0 120 75" fill="none" xmlns="http://www.w3.org/2000/svg">
<g clip-path="url(#clip0_2033_1151)">
<path d="M0.28125 64.9391C0.28125 59.4895 4.72631 55.0547 10.1902 55.0547C15.6541 55.0547 20.0973 59.4895 20.0973 64.9391C20.0973 70.3886 15.6523 74.8253 10.1902 74.8253C4.72815 74.8253 0.28125 70.3905 0.28125 64.9391ZM17.0721 64.9391C17.0721 59.5923 13.9842 55.2437 10.1902 55.2437C6.39619 55.2437 3.30838 59.5923 3.30838 64.9391C3.30838 70.2859 6.39435 74.6345 10.1902 74.6345C13.9861 74.6345 17.0721 70.284 17.0721 64.9391Z" fill="#815A04"/>
<path d="M31.2808 70.1138C30.9351 70.1615 30.582 70.1872 30.2234 70.1872H25.6661V73.7762C25.6661 74.2496 26.0542 74.6349 26.5287 74.6349V74.8239H21.7783V74.6349C22.2546 74.6349 22.6408 74.2496 22.6408 73.7743V56.1028C22.6408 55.6294 22.2546 55.2422 21.7783 55.2422V55.0532H30.2234C34.4054 55.0532 37.8077 58.4477 37.8077 62.6202C37.8077 65.3395 36.3622 67.7266 34.1995 69.0606L37.1825 73.7229C37.5043 74.2257 38.1719 74.6349 38.6703 74.6349V74.8239H33.3719V74.6349C33.565 74.6349 33.7029 74.5725 33.7673 74.4569C33.8519 74.3064 33.8114 74.0771 33.6569 73.8275L31.2808 70.1138ZM30.2234 69.9982C32.7356 69.9982 34.7806 66.6881 34.7806 62.622C34.7806 58.556 32.7356 55.2459 30.2234 55.2459H25.6661V70H30.2234V69.9982Z" fill="#815A04"/>
<path d="M40.3711 64.9396C40.3711 59.49 44.8162 55.0552 50.2801 55.0552C55.744 55.0552 60.1872 59.49 60.1872 64.9396C60.1872 70.3891 55.7421 74.8258 50.2801 74.8258C44.818 74.8258 40.3711 70.391 40.3711 64.9396ZM57.1619 64.9396C57.1619 59.5928 54.0741 55.2442 50.2801 55.2442C46.486 55.2442 43.3982 59.5928 43.3982 64.9396C43.3982 70.2864 46.4842 74.635 50.2801 74.635C54.0759 74.635 57.1619 70.2845 57.1619 64.9396Z" fill="#815A04"/>
<path d="M75.4595 55.0532H76.3092V55.2422C75.8181 55.2422 75.2774 55.6422 75.1027 56.1321L68.4747 74.7596L68.3846 74.7285L68.2944 74.7596L61.6664 56.134C61.4917 55.6422 60.9492 55.2422 60.46 55.2422V55.0532H61.4843H64.3257H65.4144V55.2422C65.1993 55.2422 65.0227 55.3211 64.9179 55.4661C64.8039 55.622 64.7836 55.8385 64.859 56.0734L69.8908 70.2147L74.9225 56.0716C74.9997 55.8367 74.9795 55.622 74.8655 55.4642C74.7607 55.3211 74.5859 55.2422 74.3708 55.2422V55.0532H75.4595Z" fill="#815A04"/>
<path d="M81.9014 74.824H78.0117V74.635C78.4862 74.635 78.8724 74.2497 78.8742 73.7763V56.1047C78.8742 55.6313 78.488 55.2442 78.0117 55.2442V55.0552H82.7621V55.2442C82.2857 55.2442 81.8995 55.6295 81.8995 56.1047V73.7763C81.8995 74.2497 82.2876 74.635 82.7621 74.635V74.824H81.8995H81.9014Z" fill="#815A04"/>
<path d="M99.4615 55.0532H100.311V55.2422C99.8201 55.2422 99.2794 55.6422 99.1047 56.1321L92.4766 74.7596L92.3865 74.7285L92.2964 74.7596L85.6684 56.134C85.4936 55.6422 84.9511 55.2422 84.4619 55.2422V55.0532H85.4863H88.3277H89.4164V55.2422C89.2012 55.2422 89.0247 55.3211 88.9198 55.4661C88.8058 55.622 88.7856 55.8385 88.861 56.0734L93.8927 70.2147L98.9244 56.0716C99.0017 55.8367 98.9815 55.622 98.8674 55.4642C98.7626 55.3211 98.5879 55.2422 98.3727 55.2422V55.0532H99.4615Z" fill="#815A04"/>
<path d="M99.9023 64.9396C99.9023 59.49 104.347 55.0552 109.811 55.0552C115.275 55.0552 119.718 59.49 119.718 64.9396C119.718 70.3891 115.273 74.8258 109.811 74.8258C104.349 74.8258 99.9023 70.391 99.9023 64.9396ZM116.691 64.9396C116.691 59.5928 113.604 55.2442 109.809 55.2442C106.015 55.2442 102.928 59.5928 102.928 64.9396C102.928 70.2864 106.014 74.635 109.809 74.635C113.605 74.635 116.691 70.2845 116.691 64.9396Z" fill="#815A04"/>
<path d="M38.917 28.0991C38.917 20.9358 43.1689 15.6459 50.8048 13.0899L50.8508 13.1817C45.7749 16.2367 43.3529 21.0276 43.3529 28.0991C43.3529 35.1707 45.7768 39.9138 50.8508 43.1083L50.8048 43.2C43.1689 40.6 38.917 35.2624 38.917 28.0991ZM44.4489 28.145C44.4489 17.9707 50.4848 11.767 59.9947 11.767C69.5046 11.767 75.5404 17.9707 75.5404 28.145C75.5404 38.3193 69.4586 44.6129 59.9947 44.6129C50.5308 44.6129 44.4489 38.2716 44.4489 28.145ZM70.9225 28.0991C70.9225 17.378 66.2126 12.8166 59.9947 12.8166C53.7768 12.8166 49.0669 17.378 49.0669 28.0991C49.0669 38.8202 53.7768 43.5193 59.9947 43.5193C66.2126 43.5193 70.9225 38.8202 70.9225 28.0991ZM51.0788 10.2166L52.6347 8.52848L59.9965 4.5138L67.1303 8.25508L68.9142 10.2184L68.4563 10.7652L59.9965 6.84224L51.5368 10.7652L51.0788 10.2184V10.2166ZM54.3248 6.70279L59.6747 0.864258H60.3147L65.6646 6.70279L65.5726 6.79453L59.9947 3.69178L54.4168 6.79453L54.3267 6.70279H54.3248ZM69.1386 43.1083C74.2145 39.9138 76.6365 35.1707 76.6365 28.0991C76.6365 21.0276 74.2126 16.2367 69.1386 13.1817L69.1846 13.0899C76.8204 15.6441 81.0742 20.9358 81.0742 28.0991C81.0742 35.2624 76.8223 40.5982 69.1846 43.2L69.1386 43.1083Z" fill="#815A04"/>
</g>
<defs>
<clipPath id="clip0_2033_1151">
<rect width="120" height="75" fill="white"/>
</clipPath>
</defs>
</svg>
