<svg width="16" height="16" viewBox="0 0 16 16" fill="none" xmlns="http://www.w3.org/2000/svg">
<path d="M10.5003 4C10.5003 4.66304 10.2369 5.29893 9.76808 5.76777C9.29923 6.23661 8.66335 6.5 8.00031 6.5C7.33727 6.5 6.70138 6.23661 6.23254 5.76777C5.7637 5.29893 5.50031 4.66304 5.50031 4C5.50031 3.33696 5.7637 2.70107 6.23254 2.23223C6.70138 1.76339 7.33727 1.5 8.00031 1.5C8.66335 1.5 9.29923 1.76339 9.76808 2.23223C10.2369 2.70107 10.5003 3.33696 10.5003 4ZM3.00098 13.412C3.0224 12.1002 3.55854 10.8494 4.49376 9.92936C5.42899 9.00929 6.68837 8.49365 8.00031 8.49365C9.31225 8.49365 10.5716 9.00929 11.5069 9.92936C12.4421 10.8494 12.9782 12.1002 12.9996 13.412C11.4312 14.1312 9.72574 14.5023 8.00031 14.5C6.21631 14.5 4.52298 14.1107 3.00098 13.412Z" stroke="#242627" stroke-width="1.2" stroke-linecap="round" stroke-linejoin="round"/>
</svg>
